<svg width="469" height="358" viewBox="0 0 469 358" fill="none" xmlns="http://www.w3.org/2000/svg">
<g filter="url(#filter0_dd)">
<path d="M169.739 69.9996L169.539 70.1996C168.134 71.6996 166.529 72.3996 165.024 72.3996L167.833 67.4996C169.639 64.3996 167.933 61.3996 165.124 61.3996C162.817 61.3996 161.011 62.2996 159.305 65.2996L157.8 67.8996L156.596 69.9996L156.396 70.1996C154.189 72.6996 152.082 74.6996 150.778 74.6996C150.075 74.6996 149.774 74.1996 150.477 73.0996L156.897 61.8996H159.305L160.208 60.4996H157.7L160.509 55.5996H157.499L154.69 60.4996H151.981L151.078 61.8996H153.787L147.768 72.2996C146.463 74.4996 147.366 76.5996 149.774 76.5996C151.48 76.5996 153.486 75.2996 155.292 73.4996C155.292 77.2996 160.609 78.0996 163.82 73.9996H164.522C166.328 73.9996 169.137 72.8996 170.642 71.0996C170.642 70.5996 170.14 70.1996 169.739 69.9996ZM163.318 70.1996H163.218C162.215 70.1996 161.412 70.9996 161.412 71.9996C161.412 72.3996 161.512 72.6996 161.713 72.9996V73.0996C160.309 75.4996 156.897 75.0996 158.603 71.8996L160.91 67.9996L162.315 65.5996C164.422 61.9996 167.331 63.3996 165.525 66.4996L163.318 70.1996Z" fill="#766458"/>
<path d="M211.375 69.9996L211.174 70.1996C208.967 72.6996 206.258 74.6996 204.151 74.6996C202.345 74.6996 201.242 73.4996 202.546 71.0996L202.847 70.5996C204.753 71.3996 208.465 70.9996 210.672 67.0996L211.074 66.3996C212.679 63.5996 211.174 61.5996 208.666 61.5996C206.258 61.5996 204.352 62.8996 203.048 65.0996L200.138 70.0996L199.938 70.2996C197.73 72.7996 195.624 74.7996 194.319 74.7996C193.617 74.7996 193.316 74.2996 194.018 73.1996L198.332 65.5996C199.637 63.2996 198.433 61.6996 196.727 61.6996C195.423 61.6996 194.018 62.3996 192.513 63.9996L197.329 55.6996H194.319L185.992 69.9996L185.792 70.1996C183.584 72.6996 181.477 74.6996 180.173 74.6996C179.471 74.6996 179.17 74.1996 179.872 73.0996L186.293 61.8996H188.701L189.604 60.4996H187.096L189.905 55.5996H186.895L184.086 60.4996H181.377L180.474 61.8996H183.183L177.163 72.2996C175.859 74.4996 176.762 76.5996 179.17 76.5996C180.374 76.5996 181.678 75.9996 182.982 74.9996L182.18 76.2996H185.19L189.704 68.3996C194.319 62.5996 196.326 63.3996 195.122 65.5996L191.209 72.3996C189.905 74.5996 190.808 76.6996 193.216 76.6996C195.022 76.6996 197.028 75.2996 198.834 73.4996C198.934 75.3996 200.54 76.6996 202.947 76.6996C206.358 76.6996 209.77 74.0996 212.177 71.1996C212.278 70.5996 211.776 70.1996 211.375 69.9996ZM205.656 65.7996C207.362 62.7996 210.472 63.2996 208.666 66.3996L208.265 67.0996C206.86 69.4996 204.854 69.4996 203.75 69.0996L205.656 65.7996Z" fill="#766458"/>
<path d="M320.831 70L320.63 70.2C319.527 71.5 318.222 72.6 317.018 73.5C318.022 70.6 317.721 66.3 319.627 62.4L317.42 61.2C316.216 62.9 313.507 66.8 310.698 70L310.497 70.2C308.29 72.7 306.183 74.7 304.879 74.7C304.177 74.7 303.876 74.2 304.578 73.1L310.999 61.9H307.989L302.672 71.2C300.364 73.3 298.659 74.4 298.057 74.2C297.354 73.9 298.057 72.8 298.458 72.1L304.277 61.9H301.267L296.552 70L296.351 70.2C294.947 71.7 293.341 72.4 291.836 72.4L294.646 67.5C296.451 64.4 294.746 61.4 291.937 61.4C289.629 61.4 287.823 62.3 286.118 65.3L284.613 67.9L283.409 70L283.208 70.2C281.001 72.7 278.292 74.7 276.185 74.7C274.38 74.7 273.276 73.5 274.58 71.1L274.881 70.6C276.787 71.4 280.5 71 282.707 67.1L283.108 66.4C284.713 63.6 283.208 61.6 280.7 61.6C278.292 61.6 276.386 62.9 275.082 65.1L272.172 70.1L271.972 70.3C269.464 73.2 267.357 75 264.949 76L271.671 64.5H269.865C269.865 63.3 268.561 61.6 266.755 61.6C265.15 61.6 262.842 62.9 261.638 65.1L258.729 70.1L258.528 70.3C256.321 72.8 254.214 74.8 252.91 74.8C252.207 74.8 251.906 74.3 252.609 73.2L255.619 68C256.622 66.2 256.12 65.1 255.217 63.9L253.512 61.9C253.11 61.4 253.11 60.7 253.712 60.2L252.107 58.5C250.402 60 250.301 61.7 251.305 63.1L251.606 63.4C250.301 65.3 248.495 67.8 246.489 70.1L246.288 70.3C244.884 71.8 243.278 72.5 241.774 72.5L244.583 67.6C246.389 64.5 244.683 61.5 241.874 61.5C239.566 61.5 237.76 62.4 236.055 65.4L234.55 68L233.346 70.1L233.145 70.3C230.637 73.2 228.53 75 226.123 76L232.844 64.5H231.039C231.039 63.3 229.734 61.6 227.928 61.6C226.323 61.6 224.016 62.9 222.812 65.1L218.598 72.4C217.294 74.6 218.197 76.7 220.605 76.7C221.407 76.7 222.411 76.3 223.514 75.7L222.712 77.1C218.698 78.3 216.09 80 216.09 82.2C216.09 85.1 220.504 85.7 222.712 82L225.019 78.1C227.427 77.4 229.734 75.9 232.243 73.6C232.243 77.4 237.56 78.2 240.77 74.1H241.473C243.278 74.1 246.088 73 247.592 71.2C248.997 69.5 250.201 68 252.609 64.8L253.01 65.3C253.411 65.8 253.512 66.4 253.211 67L250 72.5C248.696 74.7 249.599 76.8 252.007 76.8C253.512 76.8 255.217 75.8 256.822 74.4C256.822 75.8 257.725 76.8 259.431 76.8C260.234 76.8 261.237 76.4 262.34 75.8L261.638 77C257.625 78.2 255.017 79.9 255.017 82.1C255.017 85 259.431 85.6 261.638 81.9L263.946 78C266.353 77.2 268.761 75.8 271.27 73.4C271.37 75.3 272.875 76.6 275.383 76.6C277.791 76.6 280.299 75.2 282.305 73.4C282.205 77.3 287.623 78.1 290.833 74H291.535C292.438 74 293.743 73.7 294.846 73.1C294.044 75.2 294.746 76.6 296.451 76.6C298.057 76.6 299.963 75.1 301.367 73.7C301.066 75.3 302.07 76.6 303.976 76.6C306.484 76.6 309.293 74 311.801 71.1C313.507 69.1 315.012 67 316.115 65.6C314.911 68.7 315.614 74.3 312.704 74.3C311.701 74.3 311.3 73.2 311.3 73.2L309.394 74.2C309.394 74.2 309.895 76.6 312.704 76.6C313.005 76.6 313.206 76.6 313.507 76.5H313.607C316.717 76.1 319.727 73.7 321.934 71.1C321.834 70.6 321.332 70.1 320.831 70ZM277.791 65.8C279.496 62.8 282.606 63.3 280.801 66.4L280.399 67.1C278.995 69.5 276.988 69.5 275.885 69.1L277.791 65.8ZM220.404 81.4C219.802 82.5 218.799 82.4 218.799 81.5C218.799 80.7 219.501 79.8 221.809 78.9L220.404 81.4ZM221.809 74.7C221.106 74.7 220.805 74.2 221.508 73.1L225.721 65.8C227.327 63 230.537 63.7 229.032 66.4L226.725 70.4C224.919 73.3 223.012 74.7 221.809 74.7ZM240.269 70.2H240.168C239.165 70.2 238.362 71 238.362 72C238.362 72.4 238.463 72.7 238.663 73V73.1C237.259 75.5 233.848 75.1 235.553 71.9L237.861 68L239.265 65.6C241.372 62 244.282 63.4 242.476 66.5L240.269 70.2ZM259.13 81.4C258.528 82.5 257.525 82.4 257.525 81.5C257.525 80.7 258.227 79.8 260.535 78.9L259.13 81.4ZM260.535 74.7C259.832 74.7 259.531 74.2 260.234 73.1L264.447 65.8C266.053 63 269.263 63.7 267.758 66.4L265.451 70.4C263.645 73.3 261.738 74.7 260.535 74.7ZM290.131 70.2H290.031C289.027 70.2 288.225 71 288.225 72C288.225 72.4 288.325 72.7 288.526 73V73.1C287.121 75.5 283.71 75.1 285.416 71.9L287.723 68L289.128 65.6C291.234 62 294.144 63.4 292.338 66.5L290.131 70.2Z" fill="#766458"/>
<path d="M134.525 66.7998H105.53V68.7998H134.525V66.7998Z" fill="#766458"/>
<path d="M362.266 66.7998H333.271V68.7998H362.266V66.7998Z" fill="#766458"/>
<path d="M167.532 0H175.257L174.053 44.9H159.506L157.499 26.4L155.493 44.9H140.845L139.742 0H147.367L147.968 37.2H148.771L153.687 0H161.312L166.228 37.2H167.03L167.532 0Z" fill="#81B3D3"/>
<path d="M199.436 37.2V45H178.468V0H199.436V7.7H186.093V18.5H196.727V26.2H186.093V37.1H199.436V37.2Z" fill="#81B3D3"/>
<path d="M220.906 37.2V45H202.546V0H210.171V37.2H220.906Z" fill="#81B3D3"/>
<path d="M237.159 28.4L244.884 26.6V40.2C244.884 42.8 242.677 44.9 240.169 44.9H228.631C226.023 44.9 223.916 42.7 223.916 40.2V4.7C223.916 2.1 226.023 0 228.631 0H240.169C242.677 0 244.884 2.1 244.884 4.7V13.8L237.159 15.6V7.6H231.641V37.1H237.159V28.4Z" fill="#81B3D3"/>
<path d="M265.752 0C268.26 0 270.467 2.1 270.467 4.7V40.1C270.467 42.7 268.26 44.8 265.752 44.8H254.214C251.606 44.8 249.499 42.6 249.499 40.1V4.7C249.499 2.1 251.606 0 254.214 0H265.752ZM262.742 7.7H257.224V37.2H262.742V7.7Z" fill="#81B3D3"/>
<path d="M295.549 0H303.173V44.9H295.549V22.8L292.439 34.2H284.914L281.904 22.8V44.9H274.279V0H281.904L288.726 21.7L295.549 0Z" fill="#81B3D3"/>
<path d="M327.954 37.2V45H306.986V0H327.954V7.7H314.611V18.5H325.245V26.2H314.611V37.1H327.954V37.2Z" fill="#81B3D3"/>
<path d="M48.4446 157.6C44.8329 154.6 40.3182 152.6 35.5025 152.6C31.8908 152.6 27.1754 154.7 27.1754 158.9C27.1754 163.3 32.4927 165 35.8035 166L40.8198 167.5C51.2538 170.6 59.3802 175.8 59.3802 187.9C59.3802 195.3 57.5743 203 51.6551 208C45.7358 213 37.9103 215 30.3859 215C20.9552 215 11.6248 211.8 4 206.5L12.1264 191C17.0424 195.3 22.761 198.7 29.4829 198.7C34.0979 198.7 38.9136 196.4 38.9136 191.2C38.9136 185.7 31.2888 183.9 27.0751 182.7C14.8353 179.1 6.80914 176 6.80914 161.5C6.80914 146.3 17.6444 136.4 32.6934 136.4C40.2178 136.4 49.5482 138.8 56.1698 142.6L48.4446 157.6Z" fill="white"/>
<path d="M95.899 154.8V167.3H117.87V183.8H95.899V196.7H119.175V213.2H76.4357V138.4H119.175V154.9L95.899 154.8Z" fill="white"/>
<path d="M133.622 138.4H161.312C182.18 138.4 199.436 154.8 199.436 175.8C199.436 196.8 182.079 213.2 161.312 213.2H133.622V138.4ZM153.185 196.7H157.6C169.238 196.7 179.17 190.3 179.17 175.8C179.17 162.4 170.341 154.9 157.8 154.9H153.185V196.7Z" fill="white"/>
<path d="M291.636 174.4C291.636 198.6 274.179 215.7 250.101 215.7C226.022 215.7 208.566 198.6 208.566 174.4C208.566 151.8 228.531 135.9 250.101 135.9C271.671 135.9 291.636 151.8 291.636 174.4ZM228.832 174.5C228.832 187.4 238.363 196.8 250 196.8C261.638 196.8 271.169 187.4 271.169 174.5C271.169 164.2 261.638 154.7 250 154.7C238.463 154.7 228.832 164.2 228.832 174.5Z" fill="white"/>
<path d="M301.97 138.4H321.533L357.249 184.2H357.45V138.4H377.014V213.2H357.45L321.734 167.3H321.533V213.2H301.97V138.4Z" fill="white"/>
<path d="M412.429 200.2L407.212 213.2H386.545L415.439 138.4H436.708L465 213.2H444.233L439.317 200.2H412.429ZM426.073 161.5H425.873L417.847 185.3H434.1L426.073 161.5Z" fill="white"/>
<path d="M112.252 287.7C119.977 285.1 120.479 275.5 112.955 275.5C110.848 275.5 108.34 277 106.634 279.9L96.4007 297.6C95.8991 298.4 95.4978 299.1 94.8958 299.8C92.2873 296.2 92.9896 290.8 96.7017 288.4L95.1968 286.5C87.1707 291.6 89.5785 306.2 102.922 306.2C114.259 306.2 119.576 292.6 112.252 287.7ZM102.822 303.3C100.514 303.3 98.8085 302.8 97.3036 302C98.0059 301.2 98.6079 300.3 99.2098 299.3L105.631 288.2L106.634 288.3C115.563 290.2 112.052 303.3 102.822 303.3ZM106.935 286L110.045 280.7C112.854 275.9 116.366 278.7 114.459 282.3C112.955 285.1 110.848 285.9 106.935 286Z" fill="white"/>
<path d="M144.457 300C143.855 302.2 145.059 304.1 147.567 304.1C149.072 304.1 150.978 303.1 152.885 301.6C153.085 303.1 154.289 304.1 156.195 304.1C158.202 304.1 160.409 302.7 162.616 300.7C162.215 302.7 163.118 304.1 165.024 304.1C167.131 304.1 169.438 302.2 171.244 300.5C170.843 302.5 172.047 304.1 174.455 304.1C177.565 304.1 181.177 300.7 184.387 297.1C184.387 297 184.287 297 184.287 296.9C186.394 294.5 188.199 291.9 189.604 290.1C188.099 294 188.902 301.1 185.29 301.1C183.986 301.1 183.484 299.7 183.484 299.7L181.076 300.9C181.076 300.9 181.779 304 185.29 304C185.691 304 185.992 304 186.394 303.9H186.494C189.303 303.5 192.012 301.8 194.42 299.7C194.52 302.2 196.426 304 199.536 304C203.85 304 208.164 300.6 211.275 297C210.974 296.5 210.372 295.9 209.87 295.7L209.569 296C206.86 299.2 203.349 301.7 200.64 301.7C198.332 301.7 196.928 300.2 198.633 297.2L199.035 296.5C201.443 297.5 206.058 297 208.967 292.1L209.469 291.2C211.475 287.7 209.569 285.1 206.459 285.1C203.349 285.1 200.941 286.7 199.336 289.5L195.624 295.8H195.523L195.222 296.1C193.818 297.7 192.112 299.2 190.607 300.2C191.811 296.6 191.51 291 193.918 286.2L191.109 284.7C189.504 286.9 186.093 291.8 182.682 295.8L182.782 295.9L182.682 296.1C179.973 299.3 177.264 301.8 175.558 301.8C174.756 301.8 174.254 301.2 175.157 299.7L183.283 285.5H179.471L172.749 297.3C169.84 299.9 167.633 301.4 166.93 301.1C166.027 300.7 166.93 299.3 167.432 298.5L174.856 285.6H171.044L165.024 296C164.924 295.9 164.823 295.9 164.723 295.8L164.422 296.1C161.713 299.3 159.004 301.8 157.299 301.8C156.496 301.8 155.995 301.2 156.898 299.7L163.018 289H160.81C160.911 287.4 159.305 285.2 156.797 285.2C154.791 285.2 151.881 286.8 150.276 289.6L146.464 296.2C146.263 296 146.062 295.9 145.862 295.8L145.561 296.1C142.852 299.3 139.34 301.8 136.632 301.8C134.324 301.8 132.92 300.3 134.625 297.3L138.538 290.5C140.745 286.7 144.658 287.4 142.35 291.3L141.849 292.2H144.959L145.46 291.3C147.467 287.8 145.561 285.2 142.451 285.2C139.34 285.2 136.933 286.8 135.327 289.6L131.515 296.1C131.415 296 131.314 296 131.214 295.9L130.913 296.2C128.204 299.4 124.693 301.9 121.984 301.9C119.677 301.9 118.272 300.4 119.977 297.4L120.379 296.7C122.787 297.7 127.402 297.2 130.311 292.3L130.813 291.4C132.819 287.9 130.913 285.3 127.803 285.3C124.693 285.3 122.285 286.9 120.68 289.7L116.667 296.5C114.259 300.5 116.366 304.3 120.88 304.3C124.191 304.3 127.602 302.3 130.311 299.7C130.211 302.3 132.217 304.3 135.428 304.3C138.638 304.1 141.748 302.3 144.457 300ZM202.646 290.4C204.854 286.6 208.766 287.3 206.459 291.2L205.957 292.1C204.151 295.2 201.643 295.1 200.239 294.6L202.646 290.4ZM148.27 299.7L153.587 290.5C155.593 287 159.707 287.9 157.801 291.3L154.791 296.5C152.483 300.1 150.176 301.8 148.671 301.8C147.868 301.7 147.367 301.2 148.27 299.7ZM123.991 290.4C126.198 286.6 130.11 287.3 127.803 291.2L127.301 292.1C125.495 295.2 122.987 295.1 121.583 294.6L123.991 290.4Z" fill="white"/>
<path d="M253.01 304.1C257.324 304.1 261.638 300.7 264.748 297.1C264.448 296.6 263.846 296 263.344 295.8L263.043 296.1C260.334 299.3 256.823 301.8 254.114 301.8C251.806 301.8 250.402 300.3 252.107 297.3L252.509 296.6C254.916 297.6 259.532 297.1 262.441 292.2L262.943 291.3C264.949 287.8 263.043 285.2 259.933 285.2C256.823 285.2 254.415 286.8 252.81 289.6L249.098 295.9C249.098 295.9 248.997 295.9 248.997 295.8L248.696 296.1C245.987 299.3 243.279 301.8 241.573 301.8C240.77 301.8 240.269 301.2 241.172 299.7L246.69 290.1C248.295 287.2 246.79 285.1 244.683 285.1C243.078 285.1 241.272 286 239.366 288L245.486 277.5H241.573L230.838 296C230.738 295.9 230.537 295.8 230.437 295.7L230.136 296C227.427 299.2 224.718 301.7 223.013 301.7C222.21 301.7 221.708 301.1 222.611 299.6L230.738 285.4H233.848L234.952 283.6H231.841L235.453 277.4H231.641L228.029 283.6H224.618L223.514 285.4H227.026L219.401 298.6C217.796 301.4 218.899 304 222.009 304C223.916 304 225.922 302.8 228.029 301L226.524 303.6H230.337L236.155 293.6C241.974 286.3 244.583 287.2 242.978 290L238.062 298.6C236.456 301.4 237.56 304 240.67 304C242.978 304 245.586 302.2 247.994 299.8C247.994 302.3 249.9 304.1 253.01 304.1ZM256.12 290.4C258.328 286.6 262.24 287.3 259.933 291.2L259.431 292.1C257.625 295.2 255.117 295.1 253.713 294.6L256.12 290.4Z" fill="white"/>
<path d="M368.386 295.8L368.085 296.1C365.376 299.3 362.667 301.8 360.962 301.8C360.159 301.8 359.657 301.2 360.56 299.7L373.402 277.5H369.59L363.971 287.1C363.269 286 362.065 285.1 360.46 285.1C358.453 285.1 355.544 286.7 353.939 289.5L350.227 295.9C350.126 295.9 350.026 295.8 350.026 295.8L349.725 296.1C347.016 299.3 344.307 301.8 342.602 301.8C341.799 301.8 341.298 301.2 342.201 299.7L347.719 290.1C349.324 287.2 347.819 285.1 345.712 285.1C344.107 285.1 342.301 286 340.395 287.9L341.799 285.4H337.987L331.867 295.9C331.767 295.8 331.666 295.7 331.466 295.7L331.165 296C328.456 299.2 325.747 301.7 324.041 301.7C323.239 301.7 322.737 301.1 323.64 299.6L329.76 288.9H327.854C327.954 287.3 326.349 285.1 323.841 285.1C321.834 285.1 318.925 286.7 317.32 289.5L313.608 295.8L313.407 296C310.698 299.2 307.989 301.7 306.284 301.7C305.481 301.7 304.979 301.1 305.882 299.6L309.695 293C310.999 290.7 310.397 289.4 309.193 287.9L307.086 285.3C306.585 284.6 306.585 283.8 307.287 283.1L305.28 280.9C303.073 282.8 302.973 285 304.277 286.7L304.578 287.1C302.873 289.5 300.665 292.7 298.157 295.6C298.258 295.7 298.358 295.8 298.458 295.9C295.348 299.5 292.639 301.8 289.63 303.1L294.445 294.9H290.733L290.332 295.6C288.325 299.1 286.018 301.7 283.008 301.7C280.399 301.7 279.898 299.1 282.205 295.2L283.309 293.3C284.011 293.4 284.714 293.5 285.516 293.5C299.06 293.5 305.581 275.4 293.643 275.4C291.536 275.4 289.028 276.9 287.322 279.8L281.403 290C279.196 288.8 277.992 286.7 277.992 284.6C277.992 282.8 278.794 281.1 280.399 279.8L279.196 277.6C276.487 279.5 275.283 282.1 275.283 284.7C275.283 287.7 276.988 290.6 280.098 292.2L278.995 294.2C276.286 298.8 276.788 303.9 282.205 303.9C283.811 303.9 285.215 303.4 286.319 302.7L285.315 304.4C280.199 306 276.988 308 276.988 310.9C276.988 314.5 282.607 315.3 285.315 310.6L288.225 305.6C292.138 304.4 296.05 301.7 300.264 296.8C300.164 296.7 300.164 296.6 300.063 296.4C301.769 294.4 303.174 292.5 306.083 288.6L306.585 289.2C307.086 289.8 307.287 290.6 306.785 291.4L302.772 298.4C301.167 301.2 302.271 303.8 305.381 303.8C307.287 303.8 309.394 302.6 311.4 300.8C311.4 302.5 312.504 303.8 314.711 303.8C316.216 303.8 318.122 302.8 320.028 301.3C320.229 302.8 321.433 303.8 323.339 303.8C325.145 303.8 327.152 302.7 329.058 301L327.653 303.4H331.466L337.285 293.3C343.104 286 345.712 287 344.006 289.8L339.09 298.4C337.485 301.2 338.589 303.8 341.699 303.8C343.705 303.8 345.913 302.4 348.12 300.5C347.919 302.4 349.123 303.8 351.431 303.8C352.936 303.8 354.842 302.8 356.748 301.3C356.949 302.8 358.152 303.8 360.059 303.8C363.169 303.8 366.781 300.4 369.991 296.8C369.59 296.6 368.887 296 368.386 295.8ZM290.231 281.6C291.335 279.7 292.639 278.8 293.643 278.8C299.662 278.8 295.448 291.1 285.516 291.1H284.714L290.231 281.6ZM282.105 310.2C281.302 311.6 279.998 311.4 279.998 310.4C279.998 309.4 280.901 308.3 283.811 307.2L282.105 310.2ZM321.935 296.4C319.627 300 317.32 301.7 315.815 301.7C315.012 301.7 314.51 301.1 315.413 299.6L320.731 290.4C322.737 286.9 326.851 287.8 324.944 291.2L321.935 296.4ZM358.754 296.2C356.447 300 354.139 301.7 352.534 301.7C351.732 301.7 351.23 301.1 352.133 299.6L357.45 290.4C359.457 286.9 363.57 287.8 361.664 291.2L358.754 296.2Z" fill="white"/>
<path d="M241.272 331.8L240.971 332.1C238.262 335.3 235.554 337.8 233.848 337.8C233.045 337.8 232.544 337.2 233.447 335.7L238.965 326.1C240.57 323.2 239.065 321.1 236.958 321.1C235.353 321.1 233.547 322 231.641 323.9L233.045 321.4H229.233L223.113 332C222.912 331.9 222.812 331.8 222.611 331.7L222.31 332C220.605 333.9 218.498 334.8 216.592 334.8L220.204 328.6C222.511 324.6 220.404 320.9 216.792 320.9C213.883 320.9 211.576 322.1 209.368 325.9L207.462 329.1L205.857 331.9C205.757 331.8 205.656 331.8 205.556 331.7L205.255 332C202.145 335.6 199.436 337.9 196.426 339.2L206.86 321.4H203.048L196.326 333.1C193.416 335.8 191.109 337.3 190.407 337C189.504 336.6 190.407 335.2 190.908 334.4L198.332 321.5H194.52L188.4 332C188.3 331.9 188.199 331.9 188.099 331.8L187.798 332.1C185.089 335.3 182.381 337.8 180.675 337.8C179.872 337.8 179.371 337.2 180.274 335.7L185.792 326.1C187.397 323.2 185.892 321.1 183.785 321.1C182.18 321.1 180.374 322 178.468 323.9L179.872 321.4H176.06L169.94 331.9C169.84 331.8 169.739 331.7 169.539 331.7L169.238 332C166.529 335.2 163.82 337.7 162.115 337.7C161.312 337.7 160.81 337.1 161.713 335.6L167.833 324.9H165.626C165.726 323.3 164.121 321.1 161.613 321.1C159.606 321.1 156.697 322.7 155.092 325.5L151.179 332.3C150.878 332.1 150.577 331.9 150.376 331.8L150.075 332.1C147.367 335.3 143.955 337.8 140.243 337.8C137.635 337.8 136.03 335.2 138.337 331.3L139.441 329.4C140.143 329.5 140.845 329.6 141.648 329.6C145.661 329.6 150.276 327.5 153.286 322.3C154.389 320.4 154.791 318.7 154.791 317.2C154.791 313.8 152.584 311.5 149.774 311.5C147.668 311.5 145.159 313 143.454 315.9L137.535 326.1C135.327 324.9 134.123 322.8 134.123 320.7C134.123 318.9 134.926 317.2 136.531 315.9L135.327 313.7C132.619 315.6 131.415 318.2 131.415 320.8C131.415 323.8 133.12 326.7 136.23 328.3L135.127 330.3C132.418 334.9 134.023 340 139.441 340C143.654 340 146.865 338.1 149.473 335.6C148.671 338 149.875 340 152.584 340C154.088 340 155.995 339 157.901 337.5C158.102 339 159.305 340 161.212 340C163.017 340 165.024 338.9 166.93 337.2L165.526 339.6H169.338L175.157 329.5C180.976 322.2 183.584 323.2 181.879 326L176.963 334.6C175.358 337.4 176.461 340 179.571 340C181.578 340 183.885 338.6 186.093 336.6C185.591 338.7 186.594 340 188.5 340C190.306 340 192.413 338.5 194.119 336.9L192.012 340.5C186.895 342 183.584 344.1 183.584 347C183.584 350.6 189.203 351.4 191.912 346.7L194.821 341.7C198.031 340.7 201.142 338.7 204.452 335.5C203.951 340.8 210.974 342 215.288 336.6H216.09C217.495 336.6 219.401 336.1 221.107 335.1L218.598 339.5H222.411L228.23 329.4C234.049 322.1 236.657 323.1 234.952 325.9L230.036 334.5C228.43 337.3 229.534 339.9 232.644 339.9C235.754 339.9 239.366 336.5 242.576 332.9C242.476 332.6 241.774 332 241.272 331.8ZM146.564 317.6C147.668 315.7 148.972 314.8 149.975 314.8C151.38 314.8 152.082 315.7 152.082 317.1C152.082 320.6 147.768 327 141.849 327H141.046L146.564 317.6ZM160.008 332.4C157.7 336 155.393 337.7 153.888 337.7C153.085 337.7 152.584 337.1 153.486 335.6L158.804 326.4C160.81 322.9 164.924 323.8 163.018 327.2L160.008 332.4ZM188.902 346.2C188.099 347.6 186.795 347.4 186.795 346.4C186.795 345.4 187.698 344.3 190.607 343.2L188.902 346.2ZM214.585 332H214.385C213.181 332 212.177 333 212.177 334.3C212.177 334.8 212.278 335.2 212.579 335.6V335.7C210.773 338.8 206.459 338.2 208.666 334.2L211.576 329.2L213.381 326.1C216.09 321.6 219.702 323.4 217.394 327.3L214.585 332Z" fill="white"/>
<path d="M329.459 333.1C329.258 332.5 328.556 331.9 328.055 331.8L327.754 332.1C326.349 333.7 324.643 335.2 323.139 336.2C324.342 332.6 324.041 327 326.449 322.2L323.64 320.7C322.035 322.9 318.624 327.8 315.213 331.8L314.912 332.1C312.203 335.3 309.494 337.8 307.789 337.8C306.986 337.8 306.183 337 306.183 335.2V333.6C308.892 333.9 311.701 332.2 313.507 329.1L314.51 327.3C318.022 321.2 312.303 319.2 308.391 322.8L313.808 313.4H309.996L299.161 332.2C298.96 332 298.659 331.8 298.458 331.7L298.157 332C295.448 335.2 291.937 337.7 289.228 337.7C286.921 337.7 285.516 336.2 287.222 333.2L291.134 326.4C293.342 322.6 297.254 323.3 294.947 327.2L294.445 328.1H297.555L298.057 327.2C300.063 323.7 298.157 321.1 295.047 321.1C291.937 321.1 289.529 322.7 287.924 325.5L284.212 331.9C284.112 331.9 284.011 331.8 284.011 331.8L283.71 332.1C281.001 335.3 278.293 337.8 276.587 337.8C275.784 337.8 275.283 337.2 276.186 335.7L284.312 321.5H280.5L273.778 333.3C270.868 335.9 268.661 337.4 267.959 337.1C267.056 336.7 267.959 335.3 268.461 334.5L275.885 321.6H272.072L264.648 334.3C263.846 335 262.943 335.7 262.24 336.3C263.444 332.7 263.143 327.1 265.551 322.3L262.742 320.8C261.137 323 252.408 334.6 248.897 338.6C249.198 339.1 249.8 339.5 250.302 339.9C252.509 337.4 259.732 328.1 261.036 326.3C259.532 330.2 260.334 337.3 256.722 337.3C255.418 337.3 254.917 335.9 254.917 335.9L252.509 337.1C252.509 337.1 253.211 340.2 256.722 340.2C257.124 340.2 257.425 340.2 257.826 340.1H257.926C259.833 339.8 261.739 339 263.545 337.7C263.545 339.2 264.448 340.2 266.053 340.2C268.16 340.2 270.467 338.3 272.273 336.6C271.872 338.6 273.076 340.2 275.483 340.2C277.891 340.2 280.5 338.3 283.008 335.8C283.008 338.3 285.014 340.2 288.125 340.2C291.235 340.2 294.245 338.5 296.953 336.2L294.846 339.9H298.659L302.973 332.4V335.4C302.973 338.6 303.575 340.3 306.685 340.3C309.795 340.3 313.407 336.9 316.617 333.3C318.824 330.8 320.63 328.2 322.035 326.4C320.53 330.3 321.333 337.4 317.721 337.4C316.417 337.4 315.915 336 315.915 336L313.507 337.2C313.507 337.2 314.209 340.3 317.721 340.3C318.122 340.3 318.423 340.3 318.825 340.2H318.925C322.737 339.5 326.65 336.4 329.459 333.1ZM304.177 330.1L305.28 328.2C309.695 322.1 312.705 323.8 311.3 326.1L309.494 329.2C308.391 331.2 305.08 332.6 304.177 330.1Z" fill="white"/>
<path d="M329.359 335.7C328.155 335.7 327.152 336.7 327.152 337.9C327.152 339.1 328.055 340.1 329.359 340.1C330.563 340.1 331.566 339.2 331.566 337.9C331.566 336.7 330.563 335.7 329.359 335.7Z" fill="white"/>
<path d="M329.559 334.2H333.372L345.311 313.5H341.498L329.559 334.2Z" fill="white"/>
<path d="M84.4617 277.6C84.4617 277.9 84.3614 278.2 84.261 278.5C84.1607 278.8 83.9601 279.1 83.7594 279.3C83.5588 279.5 83.2578 279.7 82.9568 279.9C82.6558 280 82.2545 280.1 81.8532 280.1C81.3516 280.1 80.9503 280 80.549 279.8C80.1477 279.6 79.7464 279.4 79.4454 279.1C79.1444 278.8 79.0441 278.5 78.8434 278.1C78.7431 277.7 78.6428 277.3 78.6428 276.8C78.6428 275.9 78.8434 275.2 79.1444 274.4C79.4454 273.7 79.8467 273 80.4486 272.5C80.6493 272.3 80.9503 272 81.2512 271.8C81.5522 271.6 81.8532 271.4 82.1542 271.3C82.4552 271.2 82.6558 271 82.8565 270.9C83.0571 270.8 83.1574 270.8 83.2578 270.7L84.6623 272.7C84.4617 272.8 84.1607 272.9 83.8597 273.1C83.5588 273.2 83.2578 273.4 82.9568 273.6C82.6558 273.8 82.4552 274.1 82.2545 274.4C82.0539 274.7 81.9535 275 81.9535 275.4C82.6558 275.4 83.1575 275.6 83.6591 276C84.261 276.3 84.4617 276.9 84.4617 277.6ZM92.3875 277.6C92.3875 277.9 92.2872 278.2 92.1868 278.5C92.0865 278.8 91.8859 279.1 91.6852 279.3C91.4845 279.5 91.1836 279.7 90.8826 279.9C90.5816 280 90.1803 280.1 89.779 280.1C89.2774 280.1 88.8761 280 88.4748 279.8C88.0735 279.6 87.6721 279.4 87.3712 279.1C87.1705 278.8 86.9699 278.5 86.7692 278.1C86.6689 277.7 86.5686 277.3 86.5686 276.8C86.5686 275.9 86.7692 275.2 87.0702 274.4C87.3712 273.7 87.7725 273 88.3744 272.5C88.5751 272.3 88.8761 272 89.177 271.8C89.478 271.6 89.779 271.4 90.08 271.3C90.381 271.2 90.5816 271 90.7823 270.9C90.9829 270.8 91.0832 270.8 91.1836 270.7L92.5881 272.7C92.3875 272.8 92.0865 272.9 91.7855 273.1C91.4845 273.2 91.1836 273.4 90.8826 273.6C90.5816 273.8 90.381 274.1 90.1803 274.4C89.9796 274.7 89.8793 275 89.8793 275.4C90.5816 275.4 91.0832 275.6 91.5849 276C92.0865 276.3 92.3875 276.9 92.3875 277.6Z" fill="white"/>
<path d="M358.353 336.5C358.353 336.2 358.453 335.9 358.554 335.6C358.654 335.3 358.855 335 359.055 334.8C359.256 334.6 359.557 334.4 359.858 334.2C360.159 334.1 360.56 334 360.961 334C361.463 334 361.864 334.1 362.266 334.3C362.667 334.5 363.068 334.7 363.369 335C363.67 335.3 363.771 335.6 363.971 336C364.072 336.4 364.172 336.8 364.172 337.3C364.172 338.2 363.971 338.9 363.67 339.7C363.369 340.4 362.968 341.1 362.366 341.6C362.165 341.8 361.864 342.1 361.563 342.3C361.262 342.5 360.961 342.7 360.66 342.8C360.36 342.9 360.159 343.1 359.958 343.2C359.758 343.3 359.657 343.3 359.557 343.4L358.152 341.4C358.353 341.3 358.654 341.2 358.955 341C359.256 340.9 359.557 340.7 359.858 340.5C360.159 340.3 360.359 340 360.56 339.7C360.761 339.4 360.861 339.1 360.861 338.7C360.159 338.7 359.657 338.5 359.156 338.1C358.654 337.8 358.353 337.2 358.353 336.5ZM350.528 336.5C350.528 336.2 350.628 335.9 350.728 335.6C350.828 335.3 351.029 335 351.23 334.8C351.43 334.6 351.731 334.4 352.032 334.2C352.333 334.1 352.735 334 353.136 334C353.638 334 354.039 334.1 354.44 334.3C354.842 334.5 355.243 334.7 355.544 335C355.744 335.3 355.945 335.6 356.146 336C356.246 336.4 356.346 336.8 356.346 337.3C356.346 338.2 356.146 338.9 355.845 339.7C355.544 340.4 355.143 341.1 354.541 341.6C354.34 341.8 354.039 342.1 353.738 342.3C353.437 342.5 353.136 342.7 352.835 342.8C352.534 342.9 352.333 343.1 352.133 343.2C351.932 343.3 351.832 343.3 351.731 343.4L350.327 341.4C350.628 341.3 350.828 341.2 351.129 341C351.43 340.9 351.731 340.7 352.032 340.5C352.333 340.3 352.534 340 352.735 339.7C352.935 339.4 353.036 339.1 353.036 338.7C352.333 338.7 351.832 338.5 351.33 338.1C350.728 337.8 350.528 337.2 350.528 336.5Z" fill="white"/>
</g>
<defs>
<filter id="filter0_dd" x="0" y="0" width="469" height="357.965" filterUnits="userSpaceOnUse" color-interpolation-filters="sRGB">
<feFlood flood-opacity="0" result="BackgroundImageFix"/>
<feColorMatrix in="SourceAlpha" type="matrix" values="0 0 0 0 0 0 0 0 0 0 0 0 0 0 0 0 0 0 127 0" result="hardAlpha"/>
<feOffset dy="4"/>
<feGaussianBlur stdDeviation="2"/>
<feComposite in2="hardAlpha" operator="out"/>
<feColorMatrix type="matrix" values="0 0 0 0 0 0 0 0 0 0 0 0 0 0 0 0 0 0 0.25 0"/>
<feBlend mode="normal" in2="BackgroundImageFix" result="effect1_dropShadow"/>
<feColorMatrix in="SourceAlpha" type="matrix" values="0 0 0 0 0 0 0 0 0 0 0 0 0 0 0 0 0 0 127 0" result="hardAlpha"/>
<feOffset dy="4"/>
<feGaussianBlur stdDeviation="2"/>
<feComposite in2="hardAlpha" operator="out"/>
<feColorMatrix type="matrix" values="0 0 0 0 0 0 0 0 0 0 0 0 0 0 0 0 0 0 0.25 0"/>
<feBlend mode="normal" in2="effect1_dropShadow" result="effect2_dropShadow"/>
<feBlend mode="normal" in="SourceGraphic" in2="effect2_dropShadow" result="shape"/>
</filter>
</defs>
</svg>
